<svg preserveAspectRatio="none" overflow="visible" style="display: block;" width="536.997" height="458.176" viewBox="0 0 536.997 458.176" fill="none" xmlns="http://www.w3.org/2000/svg">
<path id="Exclude" d="M168.217 0.0664062C169.254 0.0225554 170.298 0 171.347 0H200.409L217.039 15.8447L220.877 0H280.654C322.544 0.000157831 355.271 35.3451 355.271 77.2354V250.223C338.733 252.504 325.996 266.693 325.996 283.858C325.996 301.024 338.733 315.212 355.271 317.493V432.509L355.535 435.922H369.28V316.52C383.5 312.467 393.912 299.379 393.912 283.858C393.912 268.338 383.5 255.249 369.28 251.196V77.2354L446.516 0.000976562H536.997V403.843L459.762 458.176V22.2549H446.516V458.176H351.607C309.717 456.866 278.3 422.176 278.3 380.94V25.7822L278.036 22.2539H264.291V458.176H187.056V22.2539H173.311V458.176H151.166L138.096 435.537L125.025 458.176H73.3086C31.4184 456.867 0.00115624 422.176 0.000976562 380.94L0 57.4717L77.2354 0V435.921H90.9814V0H168.217V0.0664062ZM359.954 249.9C363.188 249.9 366.317 250.352 369.28 251.196V316.52C366.317 317.364 363.188 317.816 359.954 317.816C358.365 317.816 356.802 317.704 355.271 317.493V250.223C356.802 250.012 358.365 249.9 359.954 249.9Z" fill="white"/>
</svg>
